<svg width="100" height="100" version="1.1" xmlns="http://www.w3.org/2000/svg" desc="Created with imagetracer.js version 1.2.6" ><path fill="rgb(156,212,231)" stroke="rgb(156,212,231)" stroke-width="1" opacity="1" d="M 45.5 6 Q 55.9 4.6 60 9.5 L 58.5 9 Q 54.5 6 46.5 7 Q 40 8.5 37 13.5 L 34.5 17 Q 23.8 16.3 20 22.5 L 18 30 L 12.5 31 L 7 36.5 L 5.5 42 L 5 38.5 L 10.5 31 L 18 27.5 L 20 20 L 27.5 16 L 35 16 L 41.5 8 L 45.5 6 Z " /><path fill="rgb(156,212,231)" stroke="rgb(156,212,231)" stroke-width="1" opacity="1" d="M 65.5 16 L 68 17.5 L 66.5 18 L 65.5 16 Z " /><path fill="rgb(156,212,231)" stroke="rgb(156,212,231)" stroke-width="1" opacity="1" d="M 74.5 18 L 77 19.5 L 75.5 19 L 74.5 18 Z " /><path fill="rgb(156,212,231)" stroke="rgb(156,212,231)" stroke-width="1" opacity="1" d="M 39 19 L 43 20.5 L 42.5 23 L 42 20 L 39 21.5 L 38.5 23 L 38 21.5 L 39 19 Z " /><path fill="rgb(156,212,231)" stroke="rgb(156,212,231)" stroke-width="1" opacity="1" d="M 52.5 20 L 54 20.5 L 50 23.5 L 48.5 27 L 45.5 26 L 44 26.5 Q 45.2 24 49 25 L 50 21 L 52.5 20 Z " /><path fill="rgb(156,212,231)" stroke="rgb(156,212,231)" stroke-width="1" opacity="1" d="M 57.5 20 L 60 23.5 L 59 23.5 L 57.5 20 Z " /><path fill="rgb(156,212,231)" stroke="rgb(156,212,231)" stroke-width="1" opacity="1" d="M 79.5 22 L 80.5 24 L 79.5 22 Z " /><path fill="rgb(156,212,231)" stroke="rgb(156,212,231)" stroke-width="1" opacity="1" d="M 53 23 Q 58.2 20.9 57 25.5 L 53 27 L 53 23 Z M 54 24 Q 53 27 56 26 Q 57 23 54 24 Z " /><path fill="rgb(156,212,231)" stroke="rgb(156,212,231)" stroke-width="1" opacity="1" d="M 63.5 24 Q 67.3 23.3 68 25.5 L 66.5 25 Q 62.3 24.3 61.5 27 L 63.5 24 Z " /><path fill="rgb(156,212,231)" stroke="rgb(156,212,231)" stroke-width="1" opacity="1" d="M 82.5 28 L 86 29.5 L 83.5 30 L 82.5 28 Z " /><path fill="rgb(156,212,231)" stroke="rgb(156,212,231)" stroke-width="1" opacity="1" d="M 46.5 29 L 45.5 31 L 46.5 29 Z " /><path fill="rgb(156,212,231)" stroke="rgb(156,212,231)" stroke-width="1" opacity="1" d="M 50.5 29 L 49.5 31 L 50.5 29 Z " /><path fill="rgb(156,212,231)" stroke="rgb(156,212,231)" stroke-width="1" opacity="1" d="M 55.5 30 L 56.5 32 L 55.5 30 Z " /><path fill="rgb(156,212,231)" stroke="rgb(156,212,231)" stroke-width="1" opacity="1" d="M 61.5 30 L 62.5 32 L 61.5 30 Z " /><path fill="rgb(156,212,231)" stroke="rgb(156,212,231)" stroke-width="1" opacity="1" d="M 89.5 31 L 91.5 34 L 89.5 31 Z " /><path fill="rgb(156,212,231)" stroke="rgb(156,212,231)" stroke-width="1" opacity="1" d="M 68.5 32 L 69 34.5 L 68 34.5 L 68.5 32 Z " /><path fill="rgb(156,212,231)" stroke="rgb(156,212,231)" stroke-width="1" opacity="1" d="M 46.5 34 L 47.5 36 L 46.5 34 Z " /><path fill="rgb(156,212,231)" stroke="rgb(156,212,231)" stroke-width="1" opacity="1" d="M 56.5 34 L 55.5 36 L 53 35.5 L 56.5 34 Z " /><path fill="rgb(156,212,231)" stroke="rgb(156,212,231)" stroke-width="1" opacity="1" d="M 61.5 34 L 64 34.5 L 61.5 35 L 61.5 34 Z " /><path fill="rgb(156,212,231)" stroke="rgb(156,212,231)" stroke-width="1" opacity="1" d="M 43.5 35 L 48 38.5 L 46.5 39 L 43.5 35 Z " /><path fill="rgb(156,212,231)" stroke="rgb(156,212,231)" stroke-width="1" opacity="1" d="M 18.5 36 L 21 37.5 L 19.5 37 Q 17.3 36.3 18 38.5 L 11.5 46 L 11 43.5 L 16 37 L 18.5 36 Z " /><path fill="rgb(156,212,231)" stroke="rgb(156,212,231)" stroke-width="1" opacity="1" d="M 61.5 36 L 64 37.5 L 62.5 38 L 61.5 36 Z " /><path fill="rgb(156,212,231)" stroke="rgb(156,212,231)" stroke-width="1" opacity="1" d="M 39.5 37 L 42 37.5 L 39.5 38 L 39.5 37 Z " /><path fill="rgb(156,212,231)" stroke="rgb(156,212,231)" stroke-width="1" opacity="1" d="M 5.5 45 Q 6.2 52.3 11.5 55 L 15 56.5 L 13.5 57 L 6 50.5 L 5.5 45 Z " /><path fill="rgb(156,212,231)" stroke="rgb(156,212,231)" stroke-width="1" opacity="1" d="M 91.5 53 L 89.5 56 L 91.5 53 Z " /><path fill="rgb(156,212,231)" stroke="rgb(156,212,231)" stroke-width="1" opacity="1" d="M 62.5 57 L 64 57.5 L 60.5 60 L 62.5 57 Z " /><path fill="rgb(156,212,231)" stroke="rgb(156,212,231)" stroke-width="1" opacity="1" d="M 25 59 L 30 59.5 L 26 60 L 29 64.5 L 25 61.5 L 25 59 Z " /><path fill="rgb(156,212,231)" stroke="rgb(156,212,231)" stroke-width="1" opacity="1" d="M 19.5 62 L 23.5 67 L 19.5 62 Z " /><path fill="rgb(156,212,231)" stroke="rgb(156,212,231)" stroke-width="1" opacity="1" d="M 30.5 66 L 37 71.5 L 31.5 67 L 30.5 66 Z " /><path fill="rgb(156,212,231)" stroke="rgb(156,212,231)" stroke-width="1" opacity="1" d="M 27.5 69 L 28.5 71 L 27.5 69 Z " /><path fill="rgb(156,212,231)" stroke="rgb(156,212,231)" stroke-width="1" opacity="1" d="M 31.5 72 L 33.5 75 L 31.5 72 Z " /><path fill="rgb(207,229,236)" stroke="rgb(207,229,236)" stroke-width="1" opacity="1" d="M 45.5 5 Q 59 4 64 11.5 L 66 16 Q 76.8 15 81 21.5 L 82 24.5 L 81 24.5 L 79 20 L 75.5 18 L 66.5 17 L 65 15.5 L 63 11 L 53.5 6 L 45.5 6 L 35 14.5 L 34.5 16 L 27.5 16 L 20 20 L 16.5 29 Q 9.9 29.9 7 34.5 L 4 43.5 L 6 50.5 L 11.5 56 L 17 58.5 L 19 62.5 L 17 61.5 L 16 58 Q 10.2 57.6 7 53.5 L 3 47.5 L 3 41.5 Q 4.4 33.4 10.5 30 Q 15.3 29.8 17 26.5 Q 17.3 19.3 22.5 17 Q 26.1 14.1 33.5 15 L 36 12.5 L 40.5 7 L 45.5 5 Z " /><path fill="rgb(207,229,236)" stroke="rgb(207,229,236)" stroke-width="1" opacity="1" d="M 40.5 20 Q 42.8 19.3 42 21.5 L 40 21.5 L 40.5 36 L 41.5 33 L 42 37 L 39 36.5 L 39 21.5 L 40.5 20 Z " /><path fill="rgb(207,229,236)" stroke="rgb(207,229,236)" stroke-width="1" opacity="1" d="M 54.5 20 L 58 21.5 L 54.5 23 L 52.5 22 L 50 23.5 L 54.5 20 Z " /><path fill="rgb(207,229,236)" stroke="rgb(207,229,236)" stroke-width="1" opacity="1" d="M 66.5 25 L 67.5 27 L 66.5 25 Z " /><path fill="rgb(207,229,236)" stroke="rgb(207,229,236)" stroke-width="1" opacity="1" d="M 41.5 26 L 42 29.5 L 41 29.5 L 41.5 26 Z " /><path fill="rgb(207,229,236)" stroke="rgb(207,229,236)" stroke-width="1" opacity="1" d="M 45.5 26 L 44.5 28 L 45.5 26 Z " /><path fill="rgb(207,229,236)" stroke="rgb(207,229,236)" stroke-width="1" opacity="1" d="M 47.5 26 L 48 27.5 L 44.5 31 L 43 29.5 Q 45 31.2 47 27.5 L 47.5 26 Z " /><path fill="rgb(207,229,236)" stroke="rgb(207,229,236)" stroke-width="1" opacity="1" d="M 56.5 26 L 55.5 28 L 54 27.5 L 56.5 26 Z " /><path fill="rgb(207,229,236)" stroke="rgb(207,229,236)" stroke-width="1" opacity="1" d="M 82.5 26 L 83 28 L 85 28.5 L 83.5 29 L 82.5 26 Z " /><path fill="rgb(207,229,236)" stroke="rgb(207,229,236)" stroke-width="1" opacity="1" d="M 50.5 27 Q 52.8 27.8 52 31.5 L 49 31.5 L 51 28.5 L 50.5 27 Z " /><path fill="rgb(207,229,236)" stroke="rgb(207,229,236)" stroke-width="1" opacity="1" d="M 61.5 27 L 64 31.5 L 61 29.5 L 61.5 27 Z " /><path fill="rgb(207,229,236)" stroke="rgb(207,229,236)" stroke-width="1" opacity="1" d="M 86.5 29 L 93 33.5 L 89.5 31 Q 85.8 30.8 86.5 29 Z " /><path fill="rgb(207,229,236)" stroke="rgb(207,229,236)" stroke-width="1" opacity="1" d="M 56.5 30 L 58 33.5 L 57 33.5 L 56.5 30 Z " /><path fill="rgb(207,229,236)" stroke="rgb(207,229,236)" stroke-width="1" opacity="1" d="M 66.5 30 L 67.5 32 L 66.5 30 Z " /><path fill="rgb(207,229,236)" stroke="rgb(207,229,236)" stroke-width="1" opacity="1" d="M 44.5 32 L 45.5 34 L 44.5 32 Z " /><path fill="rgb(207,229,236)" stroke="rgb(207,229,236)" stroke-width="1" opacity="1" d="M 65.5 34 L 64.5 36 L 62.5 37 L 61.5 35 L 63.5 35 L 65.5 34 Z " /><path fill="rgb(207,229,236)" stroke="rgb(207,229,236)" stroke-width="1" opacity="1" d="M 46.5 35 L 48 38 L 46 37.5 L 46.5 35 Z " /><path fill="rgb(207,229,236)" stroke="rgb(207,229,236)" stroke-width="1" opacity="1" d="M 49.5 35 L 50.5 37 L 49.5 35 Z " /><path fill="rgb(207,229,236)" stroke="rgb(207,229,236)" stroke-width="1" opacity="1" d="M 56.5 35 L 59 35.5 L 55.5 38 L 55.5 37 L 57 36.5 L 56.5 35 Z " /><path fill="rgb(207,229,236)" stroke="rgb(207,229,236)" stroke-width="1" opacity="1" d="M 67.5 35 L 66.5 37 L 67.5 35 Z " /><path fill="rgb(207,229,236)" stroke="rgb(207,229,236)" stroke-width="1" opacity="1" d="M 95.5 45 L 96 48.5 L 95 48.5 L 95.5 45 Z " /><path fill="rgb(207,229,236)" stroke="rgb(207,229,236)" stroke-width="1" opacity="1" d="M 92.5 53 L 92 54.5 Q 92.8 56.8 90.5 56 L 92.5 53 Z " /><path fill="rgb(207,229,236)" stroke="rgb(207,229,236)" stroke-width="1" opacity="1" d="M 35.5 58 L 36.5 60 L 34.5 60 L 33 59.5 L 35.5 58 Z " /><path fill="rgb(207,229,236)" stroke="rgb(207,229,236)" stroke-width="1" opacity="1" d="M 62.5 59 L 65 59.5 L 64 62 L 59.5 63 L 59 61 L 62.5 59 Z " /><path fill="rgb(207,229,236)" stroke="rgb(207,229,236)" stroke-width="1" opacity="1" d="M 79.5 59 L 83 59.5 L 79.5 60 L 79.5 59 Z " /><path fill="rgb(207,229,236)" stroke="rgb(207,229,236)" stroke-width="1" opacity="1" d="M 29.5 60 L 31 60.5 L 29 61.5 L 32 66 L 37 69.5 L 33.5 67 L 27 61.5 L 29.5 60 Z " /><path fill="rgb(207,229,236)" stroke="rgb(207,229,236)" stroke-width="1" opacity="1" d="M 19.5 64 L 22.5 66 L 34 75.5 L 32.5 75 Q 22.9 70.5 19.5 64 Z " /><path fill="rgb(101,181,247)" stroke="rgb(101,181,247)" stroke-width="1" opacity="1" d="M 53 8 L 55.5 8 L 62 12 L 64.5 19 Q 66 16.5 71.5 18 Q 73.3 21.1 75 19.5 L 75.5 22 L 76.5 20 L 80 25.5 Q 79.5 29.5 82.5 30 L 85 30.5 L 85 32.5 Q 85.8 34.8 83.5 34 L 83.5 36 Q 79.8 34.8 81 38.5 L 77.5 36 L 75 34.5 L 67.5 24 Q 62.8 22.7 61.5 25 L 58.5 20 L 54 19 L 55.5 16 Q 58.8 17.1 58 14.5 L 57 12 L 53 10.5 L 53 8 Z " /><path fill="rgb(101,181,247)" stroke="rgb(101,181,247)" stroke-width="1" opacity="1" d="M 43.5 22 L 44 25.5 L 43 25.5 L 43.5 22 Z " /><path fill="rgb(101,181,247)" stroke="rgb(101,181,247)" stroke-width="1" opacity="1" d="M 48.5 28 Q 50.8 27.3 50 29.5 L 47.5 34 L 46 31.5 L 48.5 28 Z " /><path fill="rgb(101,181,247)" stroke="rgb(101,181,247)" stroke-width="1" opacity="1" d="M 53 32 L 56 32.5 L 55 35 Q 51.7 36.1 53 32 Z " /><path fill="rgb(101,181,247)" stroke="rgb(101,181,247)" stroke-width="1" opacity="1" d="M 86.5 33 L 87 36.5 L 86 36.5 L 86.5 33 Z " /><path fill="rgb(101,181,247)" stroke="rgb(101,181,247)" stroke-width="1" opacity="1" d="M 32.5 37 L 38 39 L 38.5 41 L 45 41 Q 46.1 38.3 43.5 39 L 40.5 40 L 40.5 39 L 43.5 37 L 48 39.5 Q 45.5 43.5 37.5 42 L 35.5 41 L 37.5 44 L 46.5 44 L 51.5 40 L 55.5 40 L 59.5 42 L 68.5 43 L 70 42.5 L 68 44.5 Q 69.5 50.5 66.5 52 Q 64.3 51.3 65 53.5 Q 64 56 59.5 55 L 54.5 59 L 47.5 59 Q 43 55.5 35.5 55 Q 33.3 59.3 25.5 58 Q 21.5 55.2 23 48 L 27.5 47 L 28 49 L 24 49.5 L 27 57 L 30 55.5 L 28 55 Q 27 52 30 53 Q 29 56 32 55 Q 30.5 51.3 33.5 52 L 41 47.5 L 39.5 45 L 34 42.5 Q 31 40.7 32.5 37 Z " /><path fill="rgb(101,181,247)" stroke="rgb(101,181,247)" stroke-width="1" opacity="1" d="M 83.5 39 L 84.5 41 Q 81.7 41.7 83.5 39 Z " /><path fill="rgb(101,181,247)" stroke="rgb(101,181,247)" stroke-width="1" opacity="1" d="M 13.5 48 Q 15.8 47.3 15 49.5 L 13.5 48 Z " /><path fill="rgb(101,181,247)" stroke="rgb(101,181,247)" stroke-width="1" opacity="1" d="M 12.5 53 L 15 54.5 L 13.5 55 L 12.5 53 Z " /><path fill="rgb(228,230,238)" stroke="rgb(228,230,238)" stroke-width="1" opacity="0.9921568627450981" d="M 44.5 0 Q 74.9 0.1 88 17.5 Q 97.4 28.1 100 45.5 L 97 43.5 L 93 33.5 L 89.5 30 L 83 28 Q 82.7 21.9 78.5 19 Q 74.3 14.8 66 16 L 61.5 9 Q 56.8 3.7 45.5 5 Q 38.3 6.8 35 12.5 L 33.5 15 Q 21.8 14.3 18 21.5 L 15.5 28 L 6 33.5 L 3 41.5 L 3 47.5 L 8.5 55 L 16 58 L 21.5 67 L 34 76.5 L 32 79.5 L 47.5 93 L 50 93 Q 48.9 95.7 51.5 95 Q 52.3 97.8 56.5 97 L 61 96 L 61 93 L 65 91 L 65 87 L 67.5 87 L 67.5 85 L 71 84.5 L 70.5 83 Q 72.8 83.8 72 81.5 L 70.5 82 Q 67.9 82.7 69 80 L 71.5 79 L 73.5 83 Q 72.5 75 77.5 73 L 81 73 L 81 71 L 85 71 Q 83.9 68.3 86.5 69 L 97.5 63 L 98 64.5 Q 93.1 79.1 82.5 88 Q 75 94.5 64.5 98 L 55.5 100 L 44.5 100 Q 23.3 96.2 12 82.5 Q 4.3 73.7 1 60.5 L 0 44.5 Q 3.8 23.3 17.5 12 Q 27.9 2.9 44.5 0 Z " /><path fill="rgb(228,230,238)" stroke="rgb(228,230,238)" stroke-width="1" opacity="0.9921568627450981" d="M 40.5 21 L 41 30 Q 44.8 31.5 44 28.5 L 46.5 27 L 44 30.5 L 47 36.5 L 45 37 L 42.5 33 Q 39.9 32.2 41 35.5 L 40 35.5 L 40.5 21 Z " /><path fill="rgb(228,230,238)" stroke="rgb(228,230,238)" stroke-width="1" opacity="0.9921568627450981" d="M 56.5 21 Q 59.5 21.5 59 25.5 L 57 28.5 Q 60 29.5 59 34.5 L 55.5 37 L 55.5 36 Q 57.8 36.8 57 34.5 L 58 31.5 Q 57.5 28.5 53.5 29 L 52 29.5 L 50 24.5 L 53 22.5 L 52 25.5 L 55.5 28 Q 58 27 57 22.5 L 56.5 21 Z " /><path fill="rgb(228,230,238)" stroke="rgb(228,230,238)" stroke-width="1" opacity="0.9921568627450981" d="M 64.5 25 L 67 26.5 L 64 27 Q 62.5 30.8 65.5 30 L 68 34.5 Q 67.5 37.5 63.5 37 L 62.5 35 L 64.5 36 L 66 32 L 62 29.5 Q 60.5 25.1 63.5 26 L 64.5 25 Z " /><path fill="rgb(228,230,238)" stroke="rgb(228,230,238)" stroke-width="1" opacity="0.9921568627450981" d="M 50.5 31 L 52.5 36 L 54 36.5 L 51.5 37 L 49 33.5 L 50.5 31 Z " /><path fill="rgb(228,230,238)" stroke="rgb(228,230,238)" stroke-width="1" opacity="0.9921568627450981" d="M 37.5 67 L 38 69.5 L 37 69.5 L 37.5 67 Z " /><path fill="rgb(0,0,0)" stroke="rgb(0,0,0)" stroke-width="1" opacity="0" d="M 0 0 L 33 0.5 Q 19.3 6.3 10 16.5 Q 3.7 23.7 0.5 34 L 0 0 Z " /><path fill="rgb(0,0,0)" stroke="rgb(0,0,0)" stroke-width="1" opacity="0" d="M 67.5 0 L 100 0 L 100 33.5 L 99 33.5 Q 94.9 19.1 84.5 11 L 67.5 1 L 67.5 0 Z " /><path fill="rgb(0,0,0)" stroke="rgb(0,0,0)" stroke-width="1" opacity="0" d="M 0.5 66 Q 5 80.5 15.5 89 L 33 99.5 L 0 100 L 0.5 66 Z " /><path fill="rgb(0,0,0)" stroke="rgb(0,0,0)" stroke-width="1" opacity="0" d="M 99.5 66 L 100 100 L 67 99.5 Q 80.7 93.7 90 83.5 Q 96.3 76.3 99.5 66 Z " /><path fill="rgb(124,210,250)" stroke="rgb(124,210,250)" stroke-width="1" opacity="1" d="M 46.5 7 L 54 7.5 L 53 10.5 L 57 12 L 58 16 L 54 17.5 Q 53.2 20.1 56.5 19 L 56.5 20 L 50 21 L 49 25 L 44.5 26 L 41.5 19 Q 38.2 17.9 39 20.5 L 38 22.5 L 39 23.5 L 39 37.5 L 40 40 L 45 39 L 44.5 41 L 38 41 Q 39.3 38 35.5 39 L 32.5 37 L 32 39.5 L 35.5 44 L 41 46.5 L 38.5 50 L 35.5 50 L 32 52 Q 33.5 55.8 30.5 55 L 27 57 L 24 49.5 L 28 49 L 28 46.5 L 19.5 36 L 16 37 L 11 43.5 L 11 46.5 Q 15.4 48.6 16 54.5 L 14 55.5 L 14.5 54 L 12.5 55 Q 6 51.5 5 42.5 Q 6.4 34.4 12.5 31 L 18 30 L 19 24.5 L 22.5 20 Q 26 16 34.5 17 L 37 14.5 L 41.5 9 L 46.5 7 Z M 28 53 Q 27 56 30 55 Q 31 52 28 53 Z " /><path fill="rgb(124,210,250)" stroke="rgb(124,210,250)" stroke-width="1" opacity="1" d="M 54.5 24 L 55.5 26 Q 52.7 26.7 54.5 24 Z " /><path fill="rgb(92,162,234)" stroke="rgb(92,162,234)" stroke-width="1" opacity="1" d="M 64.5 17 L 65 19 L 67 19.5 L 65.5 20 L 64.5 17 Z " /><path fill="rgb(92,162,234)" stroke="rgb(92,162,234)" stroke-width="1" opacity="1" d="M 78.5 23 L 79.5 25 L 78.5 23 Z " /><path fill="rgb(92,162,234)" stroke="rgb(92,162,234)" stroke-width="1" opacity="1" d="M 67 28 L 69.5 28 L 75 33.5 L 76 37 L 72 39.5 L 70.5 42 L 66.5 43 L 51.5 40 Q 48.5 46 37.5 44 L 35.5 41 L 44.5 42 L 50.5 38 Q 52 40.5 57.5 39 L 60.5 37 L 64.5 39 L 68 38 L 69 31.5 L 67 28 Z " /><path fill="rgb(92,162,234)" stroke="rgb(92,162,234)" stroke-width="1" opacity="1" d="M 84.5 31 Q 89.3 31.3 91 34.5 Q 95.2 38.3 94 47.5 L 87.5 56 L 80.5 57 Q 77.8 55.8 80 54.5 Q 78.8 48.4 81.5 49 L 86 47.5 L 85 44.5 L 77 36.5 L 81 38.5 Q 79.8 34.8 83.5 36 L 83.5 34 Q 85.8 34.8 85 32.5 L 84.5 31 Z M 87 33 L 86 37 L 87 37 L 87 33 Z M 84 39 Q 82 42 85 41 L 84 39 Z " /><path fill="rgb(92,162,234)" stroke="rgb(92,162,234)" stroke-width="1" opacity="1" d="M 68.5 44 L 69 48 L 72 48 L 72 56.5 Q 71.3 58.8 67.5 58 Q 66.1 55.4 61.5 56 Q 57.7 61.7 49.5 63 L 44.5 62 L 35.5 56 L 33.5 57 L 33.5 56 L 38.5 55 L 47.5 59 L 54.5 59 L 59.5 55 Q 64 56 65 53.5 Q 64.3 51.3 66.5 52 L 68 50.5 L 68.5 44 Z " /><path fill="rgb(92,162,234)" stroke="rgb(92,162,234)" stroke-width="1" opacity="1" d="M 26.5 46 L 27 48 L 23 48 L 23 54.5 L 25 57.5 L 23.5 58 Q 20.1 54.1 21 47 L 26.5 46 Z " /><path fill="rgb(120,145,199)" stroke="rgb(120,145,199)" stroke-width="1" opacity="1" d="M 74.5 37 L 77.5 37 L 85 44.5 L 86 47.5 L 80 49 L 79 55.5 L 83 57.5 L 78 58 L 79 47 Q 82.8 48 84 45.5 L 77.5 38 Q 73 37.5 72.5 41 L 72 39.5 L 74.5 37 Z " /><path fill="rgb(120,145,199)" stroke="rgb(120,145,199)" stroke-width="1" opacity="1" d="M 69.5 45 L 70 47 L 73 47.5 L 73 57.5 Q 72.3 59.8 68.5 59 L 68.5 58 L 72 56.5 L 72 48.5 L 69 48 L 69.5 45 Z " /><path fill="rgb(120,145,199)" stroke="rgb(120,145,199)" stroke-width="1" opacity="1" d="M 21.5 53 L 22 55.5 L 21 55.5 L 21.5 53 Z " /><path fill="rgb(120,145,199)" stroke="rgb(120,145,199)" stroke-width="1" opacity="1" d="M 61.5 56 L 62 57.5 L 58.5 60 L 61.5 56 Z " /><path fill="rgb(120,145,199)" stroke="rgb(120,145,199)" stroke-width="1" opacity="1" d="M 63.5 56 L 67 57.5 L 65.5 58 L 63.5 56 Z " /><path fill="rgb(120,145,199)" stroke="rgb(120,145,199)" stroke-width="1" opacity="1" d="M 22.5 57 L 25 58.5 L 23.5 59 L 22.5 57 Z " /><path fill="rgb(130,199,155)" stroke="rgb(130,199,155)" stroke-width="1" opacity="1" d="M 18.5 38 L 23 41.5 L 26 45.5 Q 24.8 48 21 47 L 21 55.5 L 28.5 65 L 31.5 67 L 38 72 L 36.5 76 L 19 61.5 L 16 56.5 L 16 47 L 12 45.5 L 18.5 38 Z " /><path fill="rgb(135,181,218)" stroke="rgb(135,181,218)" stroke-width="1" opacity="1" d="M 58.5 9 L 64 13.5 L 66 17.5 L 64 16.5 L 62 12 L 58.5 9 Z " /><path fill="rgb(135,181,218)" stroke="rgb(135,181,218)" stroke-width="1" opacity="1" d="M 68.5 17 L 71 17.5 L 68.5 18 L 68.5 17 Z " /><path fill="rgb(135,181,218)" stroke="rgb(135,181,218)" stroke-width="1" opacity="1" d="M 58.5 20 L 59.5 22 L 58.5 20 Z " /><path fill="rgb(135,181,218)" stroke="rgb(135,181,218)" stroke-width="1" opacity="1" d="M 77.5 20 L 78.5 22 L 77.5 20 Z " /><path fill="rgb(135,181,218)" stroke="rgb(135,181,218)" stroke-width="1" opacity="1" d="M 60.5 23 L 61.5 25 L 63 24.5 Q 60 25.5 61 30.5 L 65 33.5 L 61 34 L 62 37.5 L 60.5 37 L 55.5 39 L 55.5 38 L 59 36.5 L 60 30.5 Q 56.5 29 59 27.5 L 60.5 23 Z " /><path fill="rgb(135,181,218)" stroke="rgb(135,181,218)" stroke-width="1" opacity="1" d="M 79.5 23 L 81 25.5 L 80 25.5 L 79.5 23 Z " /><path fill="rgb(135,181,218)" stroke="rgb(135,181,218)" stroke-width="1" opacity="1" d="M 67.5 24 L 69 27.5 L 68 27.5 L 67.5 24 Z " /><path fill="rgb(135,181,218)" stroke="rgb(135,181,218)" stroke-width="1" opacity="1" d="M 42 26 Q 45 25 44 28 Q 41 29 42 26 Z " /><path fill="rgb(135,181,218)" stroke="rgb(135,181,218)" stroke-width="1" opacity="1" d="M 48.5 27 L 51 28.5 L 49.5 28 L 47.5 29 L 48.5 27 Z " /><path fill="rgb(135,181,218)" stroke="rgb(135,181,218)" stroke-width="1" opacity="1" d="M 65.5 27 L 69 31.5 L 65.5 29 L 64 28.5 L 65.5 27 Z " /><path fill="rgb(135,181,218)" stroke="rgb(135,181,218)" stroke-width="1" opacity="1" d="M 81.5 27 L 83 29.5 L 81 28.5 L 81.5 27 Z " /><path fill="rgb(135,181,218)" stroke="rgb(135,181,218)" stroke-width="1" opacity="1" d="M 46.5 30 L 45.5 32 L 46.5 30 Z " /><path fill="rgb(135,181,218)" stroke="rgb(135,181,218)" stroke-width="1" opacity="1" d="M 53.5 30 L 57 32.5 L 55.5 35 L 56 33.5 L 54.5 31 Q 51.5 30.1 53 34.5 L 52 34.5 Q 51.3 30.8 53.5 30 Z " /><path fill="rgb(135,181,218)" stroke="rgb(135,181,218)" stroke-width="1" opacity="1" d="M 85.5 30 L 92 34.5 L 93 36.5 L 91 35.5 L 88.5 32 Q 84.7 31.7 85.5 30 Z " /><path fill="rgb(135,181,218)" stroke="rgb(135,181,218)" stroke-width="1" opacity="1" d="M 46.5 33 L 49 34 Q 47.5 37.8 50.5 37 L 53 38.5 L 51.5 39 L 49.5 38 L 48 38.5 Q 48.5 33.8 46.5 33 Z " /><path fill="rgb(135,181,218)" stroke="rgb(135,181,218)" stroke-width="1" opacity="1" d="M 42.5 34 L 46 38.5 L 43.5 37 L 41.5 39 L 40 38.5 L 42 38 L 42.5 34 Z " /><path fill="rgb(135,181,218)" stroke="rgb(135,181,218)" stroke-width="1" opacity="1" d="M 18.5 37 L 24 41.5 L 28 46.5 L 23 42.5 L 19.5 38 L 18.5 37 Z " /><path fill="rgb(135,181,218)" stroke="rgb(135,181,218)" stroke-width="1" opacity="1" d="M 71.5 41 L 71 42.5 L 69.5 45 L 69 43.5 L 71.5 41 Z " /><path fill="rgb(135,181,218)" stroke="rgb(135,181,218)" stroke-width="1" opacity="1" d="M 94.5 42 L 95 45.5 L 94 45.5 L 94.5 42 Z " /><path fill="rgb(135,181,218)" stroke="rgb(135,181,218)" stroke-width="1" opacity="1" d="M 11.5 46 L 14 47.5 L 12.5 48 L 11.5 46 Z " /><path fill="rgb(135,181,218)" stroke="rgb(135,181,218)" stroke-width="1" opacity="1" d="M 15.5 47 L 16 51.5 L 15 51.5 L 15.5 47 Z " /><path fill="rgb(135,181,218)" stroke="rgb(135,181,218)" stroke-width="1" opacity="1" d="M 93.5 48 L 94 49.5 L 87.5 57 L 86 56.5 L 92 51.5 L 93.5 48 Z " /><path fill="rgb(135,181,218)" stroke="rgb(135,181,218)" stroke-width="1" opacity="1" d="M 7.5 50 L 11.5 55 L 7.5 50 Z " /><path fill="rgb(135,181,218)" stroke="rgb(135,181,218)" stroke-width="1" opacity="1" d="M 35.5 56 L 38.5 59 L 49.5 63 L 54.5 62 L 59.5 59 L 58.5 61 L 51.5 64 L 47.5 64 Q 39.3 62.7 35.5 57 Q 33.2 59.7 27.5 59 L 27.5 58 Q 33.2 58.7 35.5 56 Z " /><path fill="rgb(135,181,218)" stroke="rgb(135,181,218)" stroke-width="1" opacity="1" d="M 25.5 58 L 24.5 60 L 25.5 58 Z " /><path fill="rgb(201,202,219)" stroke="rgb(201,202,219)" stroke-width="1" opacity="1" d="M 64.5 32 Q 67.5 33.5 64.5 35 L 64.5 32 Z " /><path fill="rgb(201,202,219)" stroke="rgb(201,202,219)" stroke-width="1" opacity="1" d="M 42.5 33 L 43.5 35 L 42.5 33 Z " /><path fill="rgb(201,202,219)" stroke="rgb(201,202,219)" stroke-width="1" opacity="1" d="M 58.5 36 L 57.5 38 L 58.5 36 Z " /><path fill="rgb(201,202,219)" stroke="rgb(201,202,219)" stroke-width="1" opacity="1" d="M 95.5 42 L 96 44.5 L 95 44.5 L 95.5 42 Z " /><path fill="rgb(201,202,219)" stroke="rgb(201,202,219)" stroke-width="1" opacity="1" d="M 93.5 51 L 92.5 53 L 93.5 51 Z " /><path fill="rgb(201,202,219)" stroke="rgb(201,202,219)" stroke-width="1" opacity="1" d="M 86.5 57 L 85.5 59 L 82 58.5 L 86.5 57 Z " /><path fill="rgb(201,202,219)" stroke="rgb(201,202,219)" stroke-width="1" opacity="1" d="M 33.5 58 L 35 58.5 L 30.5 60 L 30.5 59 L 33.5 58 Z " /><path fill="rgb(201,202,219)" stroke="rgb(201,202,219)" stroke-width="1" opacity="1" d="M 36.5 58 Q 39.8 59.8 38 66.5 L 37 66.5 Q 37.6 59.8 36.5 58 Z " /><path fill="rgb(201,202,219)" stroke="rgb(201,202,219)" stroke-width="1" opacity="1" d="M 62.5 58 L 68 59.5 L 65.5 60 L 62.5 59 L 59 61 L 59 68.5 L 60.5 69 L 69 61.5 Q 68.3 59.3 70.5 60 L 64.5 67 L 58 71 L 58 63.5 L 56.5 63 L 49.5 71 Q 46.2 72.1 47 69.5 L 40 61.5 L 41.5 62 L 51.5 64 L 62.5 58 Z M 48 65 L 46 67 L 48 70 L 51 68 L 48 65 Z " /><path fill="rgb(201,202,219)" stroke="rgb(201,202,219)" stroke-width="1" opacity="1" d="M 78.5 58 L 80 58.5 L 62 77.5 L 63 81 L 61.5 81 L 50.5 92 L 62 79.5 L 61 78.5 Q 59.9 75.2 62.5 76 L 76 62.5 L 78.5 58 Z " /><path fill="rgb(201,202,219)" stroke="rgb(201,202,219)" stroke-width="1" opacity="1" d="M 26 60 L 29 60.5 L 27 61.5 L 30.5 66 L 26 60 Z " /><path fill="rgb(201,202,219)" stroke="rgb(201,202,219)" stroke-width="1" opacity="1" d="M 24.5 67 L 27.5 71 L 24.5 67 Z " /><path fill="rgb(201,202,219)" stroke="rgb(201,202,219)" stroke-width="1" opacity="1" d="M 33.5 67 L 37.5 72 L 33.5 67 Z " /><path fill="rgb(201,202,219)" stroke="rgb(201,202,219)" stroke-width="1" opacity="1" d="M 29.5 71 L 31.5 74 L 29.5 71 Z " /><path fill="rgb(201,202,219)" stroke="rgb(201,202,219)" stroke-width="1" opacity="1" d="M 34.5 75 L 36 76.5 L 33 79.5 L 34.5 82 L 32 79.5 Q 36.3 77.3 34.5 75 Z " /><path fill="rgb(201,202,219)" stroke="rgb(201,202,219)" stroke-width="1" opacity="1" d="M 36.5 82 L 38.5 85 L 36.5 82 Z " /><path fill="rgb(201,202,219)" stroke="rgb(201,202,219)" stroke-width="1" opacity="1" d="M 40.5 85 L 49 92.5 L 47.5 93 L 40.5 85 Z " /><path fill="rgb(217,219,242)" stroke="rgb(217,219,242)" stroke-width="1" opacity="0.996078431372549" d="M 8.5 31 L 6.5 34 L 8.5 31 Z " /><path fill="rgb(217,219,242)" stroke="rgb(217,219,242)" stroke-width="1" opacity="0.996078431372549" d="M 54.5 36 L 55 38 L 53 37.5 L 54.5 36 Z " /><path fill="rgb(217,219,242)" stroke="rgb(217,219,242)" stroke-width="1" opacity="0.996078431372549" d="M 96.5 42 L 100 46.5 L 100 53.5 L 99 56.5 Q 99.9 63.4 95.5 65 L 85 69 L 85 71 Q 79.7 69.8 80.5 73 L 77.5 73 Q 72.5 75 73.5 83 L 72.5 81 L 72 83 L 70 83.5 L 70.5 85 L 67 85.5 L 67.5 87 L 65 87 L 65 91 L 61 93 L 61 96 L 57.5 96 L 57.5 98 L 50 95 L 49 92.5 L 63 81 L 62 77.5 L 78.5 60 L 87 59 Q 85.9 56.3 88.5 57 L 92 56 L 96 48.5 L 96.5 42 Z M 72 79 L 71 80 Q 68 79 69 82 L 72 81 L 72 79 Z " /><path fill="rgb(217,219,242)" stroke="rgb(217,219,242)" stroke-width="1" opacity="0.996078431372549" d="M 35.5 59 L 37 60.5 L 37 68.5 L 33.5 66 Q 31.3 66.8 32 64.5 L 29.5 61 L 35.5 59 Z " /><path fill="rgb(217,219,242)" stroke="rgb(217,219,242)" stroke-width="1" opacity="0.996078431372549" d="M 64 60 L 69 61.5 L 59 69 Q 57.5 63.6 60.5 62 Q 65.3 63.3 64 60 Z " /><path fill="rgb(217,219,242)" stroke="rgb(217,219,242)" stroke-width="1" opacity="0.996078431372549" d="M 46 66 Q 49.8 65 51 67.5 L 48 69.5 Q 48.7 66.9 46 68 L 46 66 Z " /><path fill="rgb(228,228,232)" stroke="rgb(228,228,232)" stroke-width="1" opacity="0.41568627450980394" d="M 41.5 0 L 44 0.5 L 41.5 1 L 41.5 0 Z " /><path fill="rgb(228,228,232)" stroke="rgb(228,228,232)" stroke-width="1" opacity="0.41568627450980394" d="M 56.5 0 L 59 0.5 L 56.5 1 L 56.5 0 Z " /><path fill="rgb(228,228,232)" stroke="rgb(228,228,232)" stroke-width="1" opacity="0.41568627450980394" d="M 33.5 2 L 35 2.5 L 31.5 4 L 31.5 3 L 33.5 2 Z " /><path fill="rgb(228,228,232)" stroke="rgb(228,228,232)" stroke-width="1" opacity="0.41568627450980394" d="M 65.5 2 L 69 3.5 L 67.5 4 L 65.5 2 Z " /><path fill="rgb(228,228,232)" stroke="rgb(228,228,232)" stroke-width="1" opacity="0.41568627450980394" d="M 28.5 4 L 30 4.5 Q 19.4 8.9 12.5 17 L 17.5 11 L 28.5 4 Z " /><path fill="rgb(228,228,232)" stroke="rgb(228,228,232)" stroke-width="1" opacity="0.41568627450980394" d="M 70.5 4 L 75 6.5 L 73.5 6 Q 69.8 5.7 70.5 4 Z " /><path fill="rgb(228,228,232)" stroke="rgb(228,228,232)" stroke-width="1" opacity="0.41568627450980394" d="M 76.5 7 L 82 11.5 L 78.5 9 L 76.5 7 Z " /><path fill="rgb(228,228,232)" stroke="rgb(228,228,232)" stroke-width="1" opacity="0.41568627450980394" d="M 83.5 12 L 87.5 17 L 83.5 12 Z " /><path fill="rgb(228,228,232)" stroke="rgb(228,228,232)" stroke-width="1" opacity="0.41568627450980394" d="M 11.5 18 L 9 21.5 L 7.5 24 L 8 22.5 L 11.5 18 Z " /><path fill="rgb(228,228,232)" stroke="rgb(228,228,232)" stroke-width="1" opacity="0.41568627450980394" d="M 88.5 18 L 93 23.5 L 91 22.5 L 88.5 18 Z " /><path fill="rgb(228,228,232)" stroke="rgb(228,228,232)" stroke-width="1" opacity="0.41568627450980394" d="M 6.5 25 L 6 26.5 L 4.5 30 L 4 28.5 L 6.5 25 Z " /><path fill="rgb(228,228,232)" stroke="rgb(228,228,232)" stroke-width="1" opacity="0.41568627450980394" d="M 93.5 25 L 96 29.5 L 95 29.5 L 93.5 25 Z " /><path fill="rgb(228,228,232)" stroke="rgb(228,228,232)" stroke-width="1" opacity="0.41568627450980394" d="M 96.5 31 L 98 34.5 L 97 34.5 L 96.5 31 Z " /><path fill="rgb(228,228,232)" stroke="rgb(228,228,232)" stroke-width="1" opacity="0.41568627450980394" d="M 0.5 41 L 1 43.5 L 0 43.5 L 0.5 41 Z " /><path fill="rgb(228,228,232)" stroke="rgb(228,228,232)" stroke-width="1" opacity="0.41568627450980394" d="M 99.5 41 L 100 43.5 L 99 43.5 L 99.5 41 Z " /><path fill="rgb(228,228,232)" stroke="rgb(228,228,232)" stroke-width="1" opacity="0.41568627450980394" d="M 0.5 56 L 1 58.5 L 0 58.5 L 0.5 56 Z " /><path fill="rgb(228,228,232)" stroke="rgb(228,228,232)" stroke-width="1" opacity="0.41568627450980394" d="M 99.5 56 L 100 58.5 L 99 58.5 L 99.5 56 Z " /><path fill="rgb(228,228,232)" stroke="rgb(228,228,232)" stroke-width="1" opacity="0.41568627450980394" d="M 2.5 64 L 4 68.5 L 3 68.5 L 2.5 64 Z " /><path fill="rgb(228,228,232)" stroke="rgb(228,228,232)" stroke-width="1" opacity="0.41568627450980394" d="M 4.5 70 L 7 74.5 L 5 73.5 L 4.5 70 Z " /><path fill="rgb(228,228,232)" stroke="rgb(228,228,232)" stroke-width="1" opacity="0.41568627450980394" d="M 7.5 76 L 12 81.5 L 8 78.5 L 7.5 76 Z " /><path fill="rgb(228,228,232)" stroke="rgb(228,228,232)" stroke-width="1" opacity="0.41568627450980394" d="M 92.5 76 L 91.5 78 L 92.5 76 Z " /><path fill="rgb(228,228,232)" stroke="rgb(228,228,232)" stroke-width="1" opacity="0.41568627450980394" d="M 90.5 79 L 88.5 82 L 90.5 79 Z " /><path fill="rgb(228,228,232)" stroke="rgb(228,228,232)" stroke-width="1" opacity="0.41568627450980394" d="M 12.5 83 Q 19.4 91.1 30 95.5 L 28.5 96 Q 17.6 91.2 12.5 83 Z " /><path fill="rgb(228,228,232)" stroke="rgb(228,228,232)" stroke-width="1" opacity="0.41568627450980394" d="M 86.5 84 L 84.5 87 L 86.5 84 Z " /><path fill="rgb(228,228,232)" stroke="rgb(228,228,232)" stroke-width="1" opacity="0.41568627450980394" d="M 81.5 88 L 79.5 91 L 81.5 88 Z " /><path fill="rgb(228,228,232)" stroke="rgb(228,228,232)" stroke-width="1" opacity="0.41568627450980394" d="M 77.5 91 L 76.5 93 L 77.5 91 Z " /><path fill="rgb(228,228,232)" stroke="rgb(228,228,232)" stroke-width="1" opacity="0.41568627450980394" d="M 31.5 96 L 35 97.5 L 33.5 98 L 31.5 96 Z " /><path fill="rgb(228,228,232)" stroke="rgb(228,228,232)" stroke-width="1" opacity="0.41568627450980394" d="M 41.5 99 L 44 99.5 L 41.5 100 L 41.5 99 Z " /><path fill="rgb(228,228,232)" stroke="rgb(228,228,232)" stroke-width="1" opacity="0.41568627450980394" d="M 56.5 99 L 59 99.5 L 56.5 100 L 56.5 99 Z " /><path fill="rgb(237,111,135)" stroke="rgb(237,111,135)" stroke-width="1" opacity="1" d="M 75.5 39 Q 80.5 38.5 81 42.5 L 83 45.5 L 78 48.5 L 77 58.5 L 67.5 70 L 59 77.5 L 60 80.5 L 47.5 91 L 35 79.5 Q 34.3 77.3 36.5 78 Q 41.8 76.3 40 67.5 L 39 64 L 45 68.5 L 47.5 72 Q 52.3 72.8 53 69.5 L 56.5 65 L 57 71.5 L 58.5 73 L 73 60.5 Q 75.9 55.9 75 47.5 Q 73 49.2 71 45.5 L 75.5 39 Z " /><path fill="rgb(209,148,168)" stroke="rgb(209,148,168)" stroke-width="1" opacity="1" d="M 75.5 38 Q 80.5 37.5 81 41.5 L 77.5 39 L 74 40.5 L 71 45.5 L 71.5 47 Q 68.9 47.8 70 44.5 L 75.5 38 Z " /><path fill="rgb(209,148,168)" stroke="rgb(209,148,168)" stroke-width="1" opacity="1" d="M 81.5 43 Q 86 45 82.5 47 L 80 46.5 L 83 45.5 L 81.5 43 Z " /><path fill="rgb(209,148,168)" stroke="rgb(209,148,168)" stroke-width="1" opacity="1" d="M 74.5 47 L 75 54.5 Q 73.6 62.6 67.5 66 L 58.5 73 L 57 71.5 L 56.5 65 L 50.5 72 Q 45.8 72.8 45 69.5 L 40.5 64 Q 37.9 63.2 39 66.5 Q 41.7 68.2 40 74.5 L 35 78 L 38.5 83 L 48.5 91 L 60 80.5 L 59 77.5 L 74 63.5 L 77.5 55 L 78 58.5 L 76 62.5 L 62.5 76 Q 59.9 75.2 61 78.5 L 62 79.5 L 49.5 92 L 47.5 92 L 33 79.5 L 38 74.5 L 38.5 60 L 47 71 L 49.5 71 L 54 66.5 L 56.5 63 L 58 63 L 58 70.5 L 59.5 71 L 71 60.5 L 73 57.5 L 73 48.5 L 74.5 47 Z " /><path fill="rgb(209,148,168)" stroke="rgb(209,148,168)" stroke-width="1" opacity="1" d="M 78.5 48 L 79 52.5 L 78 52.5 L 78.5 48 Z " /><path fill="rgb(236,237,249)" stroke="rgb(236,237,249)" stroke-width="1" opacity="0.24705882352941178" d="M 33.5 0 L 41 0.5 Q 21.9 3.9 12 16.5 Q 3 25.5 0.5 41 L 0 34.5 Q 4.9 19.9 15.5 11 L 33.5 0 Z " /><path fill="rgb(236,237,249)" stroke="rgb(236,237,249)" stroke-width="1" opacity="0.24705882352941178" d="M 59.5 0 L 66.5 0 L 72.5 3 Q 82.8 8.2 90 16.5 L 99 31.5 L 100 40.5 L 99 40.5 L 98 33.5 L 95 26.5 L 83.5 12 L 73.5 5 L 66.5 2 L 59.5 1 L 59.5 0 Z " /><path fill="rgb(236,237,249)" stroke="rgb(236,237,249)" stroke-width="1" opacity="0.24705882352941178" d="M 0.5 59 L 5 73.5 L 17.5 89 Q 26.4 97.1 41 99.5 L 33.5 100 Q 19.6 93.9 10 83.5 L 1 68.5 L 0.5 59 Z " /><path fill="rgb(236,237,249)" stroke="rgb(236,237,249)" stroke-width="1" opacity="0.24705882352941178" d="M 99.5 59 L 100 65.5 Q 95.1 80.1 84.5 89 L 66.5 100 L 59.5 100 L 59.5 99 Q 77.2 95.7 87 84.5 Q 96.6 75.1 99.5 59 Z " /></svg>